HIERARCHY
ROOT Hips
{
	OFFSET 0.00000 0.00000 0.00000
	CHANNELS 6 Xposition Yposition Zposition Zrotation Yrotation Xrotation 
	JOINT LHipJoint
	{
		OFFSET 0 0 0
		CHANNELS 3 Zrotation Yrotation Xrotation
		JOINT LeftHip
		{
			OFFSET 1.85590 -1.73949 0.84976
			CHANNELS 3 Zrotation Yrotation Xrotation
			JOINT LeftKnee
			{
				OFFSET 2.36836 -6.50702 0.00000
				CHANNELS 3 Zrotation Yrotation Xrotation
				JOINT LeftAnkle
				{
					OFFSET 2.53268 -6.95849 0.00000
					CHANNELS 3 Zrotation Yrotation Xrotation
					JOINT LeftToe
					{
						OFFSET 0.15935 -0.43781 1.94506
						CHANNELS 3 Zrotation Yrotation Xrotation
						End Site
						{
							OFFSET 0.00000 -0.00000 1.00661
						}
					}
				}
			}
		}
	}
	JOINT RHipJoint
	{
		OFFSET 0 0 0
		CHANNELS 3 Zrotation Yrotation Xrotation
		JOINT RightHip
		{
			OFFSET -1.68297 -1.73949 0.84976
			CHANNELS 3 Zrotation Yrotation Xrotation
			JOINT RightKnee
			{
				OFFSET -2.44709 -6.72334 0.00000
				CHANNELS 3 Zrotation Yrotation Xrotation
				JOINT RightAnkle
				{
					OFFSET -2.43843 -6.69953 0.00000
					CHANNELS 3 Zrotation Yrotation Xrotation
					JOINT RightToe
					{
						OFFSET -0.20854 -0.57295 2.02172
						CHANNELS 3 Zrotation Yrotation Xrotation
						End Site
						{
							OFFSET -0.00000 -0.00000 1.05594
						}
					}
				}
			}
		}
	}
	JOINT lowerback
	{
		OFFSET 0 0 0
		CHANNELS 3 Zrotation Yrotation Xrotation
		JOINT Chest
		{
			OFFSET -0.01560 2.23971 -0.03712
			CHANNELS 3 Zrotation Yrotation Xrotation
			JOINT Chest2
			{
				OFFSET 0.05490 2.19225 -0.19086
				CHANNELS 3 Zrotation Yrotation Xrotation
				JOINT lowerneck
				{
					OFFSET 0 0 0
					CHANNELS 3 Zrotation Yrotation Xrotation
					JOINT Neck
					{
						OFFSET -0.12403 1.43168 0.27585
						CHANNELS 3 Zrotation Yrotation Xrotation
						JOINT Head
						{
							OFFSET 0.17855 1.46173 -0.32578
							CHANNELS 3 Zrotation Yrotation Xrotation
							End Site
							{
								OFFSET 0.07217 1.51590 -0.14537
							}
						}
					}
				}
				JOINT LeftCollar
				{
					OFFSET 0 0 0
					CHANNELS 3 Zrotation Yrotation Xrotation
					JOINT LeftShoulder
					{
						OFFSET 3.27650 0.85634 0.05396
CHANNELS 3 Zrotation Xrotation Yrotation
						JOINT LeftElbow
						{
OFFSET 0 -4.967550 0.000000
CHANNELS 3 Zrotation Xrotation Yrotation
							JOINT LeftWrist
							{
OFFSET 0 -3.357510 0.000000
CHANNELS 3 Zrotation Xrotation Yrotation
								JOINT lhand
								{
									OFFSET 0 0 0
CHANNELS 3 Zrotation Xrotation Yrotation
									JOINT LFingers
									{
OFFSET 0 -0.796970 0.000000
CHANNELS 3 Zrotation Xrotation Yrotation
										End Site
										{
OFFSET 0 -0.642540 0.000000
										}
									}
								}
								JOINT LThumb
								{
OFFSET 0 0.000000 0.000000
CHANNELS 3 Zrotation Xrotation Yrotation
									End Site
									{
OFFSET 0 -0.652350 0.652350
									}
								}
							}
						}
					}
				}
				JOINT RightCollar
				{
					OFFSET 0 0 0
					CHANNELS 3 Zrotation Yrotation Xrotation
					JOINT RightShoulder
					{
						OFFSET -3.24434 1.02034 0.34688
CHANNELS 3 Zrotation Xrotation Yrotation
						JOINT RightElbow
						{
OFFSET 0 -5.218590 -0.000000
CHANNELS 3 Zrotation Xrotation Yrotation
							JOINT RightWrist
							{
OFFSET 0 -3.365040 0.000000
CHANNELS 3 Zrotation Xrotation Yrotation
								JOINT rhand
								{
									OFFSET 0 0 0
CHANNELS 3 Zrotation Xrotation Yrotation
									JOINT RFingers
									{
OFFSET 0 -0.620440 0.000000
CHANNELS 3 Zrotation Xrotation Yrotation
										End Site
										{
OFFSET 0 -0.500220 0.000000
										}
									}
								}
								JOINT RThumb
								{
OFFSET 0 0.000000 0.000000
CHANNELS 3 Zrotation Xrotation Yrotation
									End Site
									{
OFFSET 0 -0.507860 0.507860
									}
								}
							}
						}
					}
				}
			}
		}
	}
}
MOTION
Frames: 4
Frame Time: 0.008333333333333333
8.947739 15.965110 1.766009 -9.551856 -5.317712 9.959375 0.000000 0.000000 0.000000 -3.305671 -9.084342 -51.432067 2.982814 10.665618 31.161955 -0.032787 6.180567 -7.687887 0.748620 -5.524446 -15.411275 0.000000 0.000000 0.000000 29.599231 -3.136738 24.175466 0.000000 0.000000 0.000000 0.090498 8.083291 -3.507152 -0.971613 6.274045 -17.582236 4.235826 4.531699 -7.991366 4.263592 5.507008 -1.000456 2.655010 2.768131 3.405006 -14.344950 -5.929661 -17.853571 14.418110 -7.597871 19.299149 6.477481 -3.034998 10.242029 0.000000 0.000000 0.000000 3.996738 28.276347 -12.498267 8.595551 -14.513300 1.096826 10.547376 7.006851 23.887890 0.000000 0.000000 0.000000 -7.125000 0.000000 0.000000 -11.538369 6.135142 -10.458644 0.000000 0.000000 0.000000 -19.657171 -13.774344 52.150692 -32.986445 -43.319621 -13.412812 -33.273175 -13.559260 21.941675 0.000000 0.000000 0.000000 7.125000 0.000000 0.000000 -4.871438 55.639755 1.273208
8.963619 15.962681 1.913276 -9.321910 -5.247962 10.023528 0.000000 0.000000 0.000000 -3.743989 -8.897697 -51.766953 3.123028 10.889516 31.910454 -0.093447 6.544589 -6.143310 0.724730 -5.439588 -15.166818 0.000000 0.000000 0.000000 29.196283 -3.340347 24.437311 0.000000 0.000000 0.000000 0.097897 7.485919 -2.572277 -0.928456 6.132853 -17.172210 3.962493 4.516085 -8.038980 4.169063 5.515924 -1.098349 2.706004 2.769729 3.312929 -14.407773 -5.979932 -17.673698 14.507000 -7.689479 19.221353 6.505689 -3.079760 10.202797 0.000000 0.000000 0.000000 3.943516 28.234791 -11.363355 8.400993 -14.200399 1.048670 10.565590 7.915620 23.999588 0.000000 0.000000 0.000000 -7.125000 0.000000 0.000000 -11.530533 6.022798 -10.476435 0.000000 0.000000 0.000000 -19.545434 -13.399748 52.109514 -33.045027 -43.364567 -13.453033 -32.925040 -13.798943 22.093679 0.000000 0.000000 0.000000 7.125000 0.000000 0.000000 -4.459195 55.732992 1.175835
8.978584 15.956787 2.060067 -9.026293 -5.222377 10.084488 0.000000 0.000000 0.000000 -4.237666 -8.699363 -52.058327 3.262645 11.108559 32.646804 -0.133459 6.829210 -4.841233 0.719358 -5.419639 -15.109572 0.000000 0.000000 0.000000 28.718526 -3.515370 24.716776 0.000000 0.000000 0.000000 0.100252 6.767627 -1.570608 -0.835008 5.829326 -16.290117 3.622217 4.511082 -8.051140 4.042303 5.550208 -1.223233 2.758228 2.783310 3.169565 -14.464912 -6.005563 -17.418264 14.617108 -7.761527 19.128894 6.543964 -3.115815 10.141528 0.000000 0.000000 0.000000 3.941198 28.224990 -10.382773 8.210790 -13.893870 1.002172 10.655220 8.688393 24.117631 0.000000 0.000000 0.000000 -7.125000 0.000000 0.000000 -11.479083 5.896257 -10.456142 0.000000 0.000000 0.000000 -19.384301 -12.936048 52.044866 -33.108944 -43.413540 -13.496905 -32.635881 -13.923963 22.201110 0.000000 0.000000 0.000000 7.125000 0.000000 0.000000 -4.118634 55.788757 1.091667
8.995157 15.946602 2.210554 -8.520291 -5.301508 10.110463 0.000000 0.000000 0.000000 -4.911452 -8.560628 -52.132937 3.411144 11.330523 33.405266 -0.156843 7.155014 -3.995866 0.643361 -5.125294 -14.267701 0.000000 0.000000 0.000000 27.980857 -3.648079 25.093626 0.000000 0.000000 0.000000 0.086872 5.858497 -0.614651 -0.781612 5.642136 -15.750123 3.082223 4.527474 -8.072776 3.844024 5.632171 -1.370647 2.851040 2.820314 2.994972 -14.619376 -6.011228 -16.945710 14.888551 -7.836198 18.938872 6.658050 -3.153241 10.017679 0.000000 0.000000 0.000000 4.049317 28.260186 -9.748582 8.047406 -13.629418 0.963541 11.090228 9.157091 24.454343 0.000000 0.000000 0.000000 -7.125000 0.000000 0.000000 -11.224877 5.513320 -10.297458 0.000000 0.000000 0.000000 -19.149741 -12.326687 51.933492 -33.149022 -43.444216 -13.524447 -32.589054 -13.884549 22.247093 0.000000 0.000000 0.000000 7.125000 0.000000 0.000000 -4.058487 55.829979 1.079674
